<?xml version="1.0" encoding="UTF-8"?>
<svg xmlns="http://www.w3.org/2000/svg" width="101" height="101" viewBox="0 0 101 101" fill="none">
  <path d="M14.8554 27.8592C13.5088 28.5746 12.625 29.9633 12.625 31.5625V69.4375C12.6224 70.1998 12.829 70.9481 13.2223 71.6011C13.6156 72.2541 14.1805 72.7867 14.8554 73.1408V27.8592ZM14.8554 27.8592L48.1013 9.17417L14.8554 27.8592ZM85.4409 71.8162L85.4252 71.8245L85.4097 71.8332L52.1639 90.5182L52.0778 90.5666L51.9988 90.6258C51.6172 90.912 51.1018 91.0833 50.5 91.0833C49.8983 91.0833 49.3829 90.912 49.0013 90.6258L48.9223 90.5666L48.8362 90.5182L15.5904 71.8332L15.5715 71.8226L15.5524 71.8126C15.1204 71.5859 14.7589 71.2451 14.5073 70.8272C14.2556 70.4093 14.1234 69.9304 14.125 69.4426V69.4375V31.5625C14.125 30.5359 14.6866 29.6474 15.5592 29.1838L15.5749 29.1755L15.5904 29.1668L48.8362 10.4818L48.9223 10.4334L49.0013 10.3742C49.3829 10.088 49.8983 9.91667 50.5 9.91667C51.1018 9.91667 51.6172 10.088 51.9988 10.3742L52.0778 10.4334L52.1639 10.4818L85.4097 29.1668L85.4252 29.1755L85.4409 29.1838C86.3134 29.6474 86.875 30.5359 86.875 31.5625V69.4375C86.875 70.4641 86.3134 71.3526 85.4409 71.8162ZM51.235 16.157L50.5 15.7439L49.7651 16.157L24.6834 30.2549L22.357 31.5625L24.6834 32.8701L49.7651 46.968L50.5 47.3811L51.235 46.968L76.3167 32.8701L78.643 31.5625L76.3167 30.2549L51.235 16.157ZM19.5417 66.9546V67.8312L20.3055 68.2615L45.5555 82.4857L47.7917 83.7454V81.1788V52.9408V52.0629L47.0263 51.633L21.7763 37.4509L19.5417 36.1958V38.7588V66.9546ZM80.6946 68.2615L81.4584 67.8312V66.9546V38.7588V36.1958L79.2238 37.4509L53.9738 51.633L53.2084 52.0629V52.9408V81.1788V83.7454L55.4446 82.4857L80.6946 68.2615Z" fill="white" stroke="#4F5253" stroke-width="3"></path>
</svg>
